<svg xmlns="http://www.w3.org/2000/svg" width="1024" height="1024" viewBox="0 0 1024 1024"><defs>
<radialGradient id="bg" cx="50%" cy="45%" r="70%"><stop offset="0" stop-color="#12301F"/><stop offset="0.55" stop-color="#0A1A11"/><stop offset="1" stop-color="#040805"/></radialGradient>
<filter id="glow" x="-30%" y="-30%" width="160%" height="160%"><feGaussianBlur stdDeviation="14" result="b"/><feColorMatrix in="b" type="matrix" values="0 0 0 0 0.55  0 0 0 0 0.94  0 0 0 0 0.48  0 0 0 0.75 0"/><feMerge><feMergeNode/><feMergeNode in="SourceGraphic"/></feMerge></filter>
</defs><rect width="1024" height="1024" fill="url(#bg)"/><path d="M128 0V1024M0 128H1024" stroke="#8EF07A" stroke-opacity="0.07" stroke-width="3"/><path d="M256 0V1024M0 256H1024" stroke="#8EF07A" stroke-opacity="0.07" stroke-width="3"/><path d="M384 0V1024M0 384H1024" stroke="#8EF07A" stroke-opacity="0.07" stroke-width="3"/><path d="M512 0V1024M0 512H1024" stroke="#8EF07A" stroke-opacity="0.07" stroke-width="3"/><path d="M640 0V1024M0 640H1024" stroke="#8EF07A" stroke-opacity="0.07" stroke-width="3"/><path d="M768 0V1024M0 768H1024" stroke="#8EF07A" stroke-opacity="0.07" stroke-width="3"/><path d="M896 0V1024M0 896H1024" stroke="#8EF07A" stroke-opacity="0.07" stroke-width="3"/><ellipse cx="300" cy="760" rx="430" ry="300" transform="rotate(-18 300 760)" fill="none" stroke="#8EF07A" stroke-opacity="0.09" stroke-width="5"/><ellipse cx="320" cy="780" rx="330" ry="220" transform="rotate(-9 320 780)" fill="none" stroke="#8EF07A" stroke-opacity="0.09" stroke-width="5"/><ellipse cx="330" cy="800" rx="230" ry="150" transform="rotate(0 330 800)" fill="none" stroke="#8EF07A" stroke-opacity="0.09" stroke-width="5"/><ellipse cx="800" cy="220" rx="380" ry="260" transform="rotate(9 800 220)" fill="none" stroke="#8EF07A" stroke-opacity="0.09" stroke-width="5"/><ellipse cx="820" cy="210" rx="260" ry="170" transform="rotate(18 820 210)" fill="none" stroke="#8EF07A" stroke-opacity="0.09" stroke-width="5"/></svg>